<svg width="77" height="66" viewBox="0 0 77 66" fill="none" xmlns="http://www.w3.org/2000/svg">
<circle cx="38.2188" cy="33.2852" r="32.5" fill="#CCEFDB"/>
<path d="M47.384 11.3262C48.1579 10.5549 49.2669 10.2226 50.3374 10.4413L67.6116 13.9687C68.6816 14.1872 69.5711 14.9269 69.981 15.9391L72.8696 23.0719C73.3513 24.2613 73.4713 25.5665 73.2146 26.8238L66.815 58.1631C66.4548 59.9272 64.7327 61.0652 62.9686 60.705L36.2844 55.256C34.5203 54.8958 33.3823 53.1737 33.7425 51.4096L40.1403 20.0791C40.3968 18.823 41.018 17.6703 41.9261 16.7653L47.384 11.3262Z" fill="#FFB762"/>
<path d="M0.980871 18.0441C1.06362 16.9545 1.6867 15.9789 2.64039 15.4456L18.0284 6.84033C18.9815 6.3073 20.1382 6.28694 21.1096 6.78608L27.9542 10.3033C29.0956 10.8899 30.0385 11.8002 30.6649 12.9202L46.2768 40.8375C47.1556 42.409 46.594 44.3953 45.0226 45.2741L21.2521 58.567C19.6806 59.4458 17.6943 58.8843 16.8155 57.3128L1.20804 29.4033C0.582263 28.2843 0.300288 27.0057 0.397377 25.7272L0.980871 18.0441Z" fill="#F89358"/>
<path d="M19.2125 29.3576C19.0342 29.9754 18.7352 30.5518 18.3327 31.0533C17.9302 31.5549 17.4323 31.9717 16.8678 32.2796C16.3033 32.5875 15.6833 32.7805 15.0437 32.8474C14.4041 32.9142 13.7577 32.8536 13.1417 32.6691C12.5389 32.5171 11.974 32.2422 11.4826 31.8615C10.9912 31.4808 10.5839 31.0025 10.2862 30.4568C9.98857 29.9111 9.807 29.3097 9.75294 28.6904C9.69887 28.0712 9.77349 27.4474 9.9721 26.8584C10.1504 26.2405 10.4495 25.6642 10.8519 25.1626C11.2544 24.6611 11.7523 24.2443 12.3168 23.9363C12.8813 23.6284 13.5013 23.4354 14.1409 23.3686C14.7805 23.3017 15.427 23.3623 16.043 23.5469C16.6458 23.6988 17.2106 23.9737 17.702 24.3545C18.1934 24.7352 18.6007 25.2134 18.8984 25.7591C19.1961 26.3049 19.3776 26.9062 19.4317 27.5255C19.4858 28.1448 19.4111 28.7685 19.2125 29.3576ZM23.9164 21.5028C24.1572 21.3836 24.4251 21.3298 24.6932 21.3469C24.9613 21.364 25.2202 21.4513 25.4439 21.6001C25.6676 21.7489 25.8482 21.9539 25.9676 22.1946C26.0869 22.4352 26.1409 22.7031 26.124 22.9712L24.9318 43.1176C24.9145 43.3752 24.8319 43.6241 24.6917 43.8408C24.5515 44.0576 24.3584 44.235 24.1305 44.3564C23.8912 44.4776 23.6241 44.5333 23.3562 44.5178C23.0884 44.5022 22.8295 44.416 22.6058 44.2679C22.3821 44.1198 22.2016 43.9151 22.0827 43.6747C21.9638 43.4342 21.9107 43.1665 21.9288 42.8988L23.1753 22.7229C23.1883 22.4741 23.2628 22.2324 23.3922 22.0195C23.5215 21.8066 23.7016 21.629 23.9164 21.5028ZM14.0099 30.0574C14.5274 30.1989 15.0795 30.1344 15.5505 29.8775C16.0215 29.6206 16.3746 29.1912 16.5358 28.6796C16.6468 28.2955 16.6417 27.8872 16.5211 27.5061C16.4005 27.125 16.1698 26.7881 15.8581 26.5378C15.5463 26.2876 15.1675 26.1352 14.7693 26.0999C14.3712 26.0645 13.9714 26.1478 13.6205 26.3392C13.2695 26.5306 12.9831 26.8216 12.7973 27.1756C12.6114 27.5295 12.5345 27.9305 12.5761 28.3281C12.6177 28.7256 12.7761 29.102 13.0312 29.4097C13.2864 29.7175 13.6269 29.9428 14.0099 30.0574ZM28.8029 36.547C28.982 35.9283 29.2818 35.3512 29.6851 34.849C30.0884 34.3469 30.5871 33.9295 31.1525 33.6211C31.718 33.3127 32.3389 33.1193 32.9794 33.0521C33.62 32.9849 34.2675 33.0452 34.8846 33.2296C35.4845 33.3864 36.0459 33.6643 36.5344 34.0461C37.0228 34.428 37.428 34.9058 37.7249 35.4501C38.0218 35.9944 38.2041 36.5937 38.2608 37.2111C38.3174 37.8286 38.2471 38.4511 38.0542 39.0403C37.8751 39.659 37.5752 40.236 37.172 40.7382C36.7687 41.2404 36.2699 41.6578 35.7045 41.9662C35.1391 42.2746 34.5182 42.468 33.8776 42.5352C33.2371 42.6024 32.5896 42.542 31.9724 42.3577C31.3726 42.2009 30.8111 41.923 30.3227 41.5411C29.8342 41.1592 29.4291 40.6815 29.1322 40.1372C28.8353 39.5928 28.6529 38.9935 28.5963 38.3761C28.5396 37.7587 28.61 37.1362 28.8029 36.547ZM34.0262 35.8078C33.509 35.6756 32.9609 35.7443 32.4923 35.9999C32.0236 36.2555 31.6692 36.6792 31.5003 37.1856C31.3792 37.7021 31.4682 38.2455 31.7477 38.6964C31.8619 38.9513 32.0276 39.1797 32.2343 39.3675C32.441 39.5552 32.6844 39.6982 32.949 39.7874C33.2137 39.8766 33.4939 39.9101 33.7721 39.8858C34.0503 39.8615 34.3205 39.7799 34.5656 39.6462C34.8108 39.5125 35.0257 39.3295 35.1967 39.1087C35.3678 38.888 35.4913 38.6342 35.5596 38.3634C35.6279 38.0926 35.6394 37.8106 35.5935 37.5352C35.5475 37.2597 35.4451 36.9967 35.2927 36.7627C35.1596 36.5257 34.9797 36.3182 34.7638 36.153C34.5479 35.9878 34.3007 35.8683 34.0371 35.8019L34.0262 35.8078Z" fill="white"/>
<circle cx="54.7185" cy="35.9787" r="9.47183" transform="rotate(-8.85648 54.7185 35.9787)" fill="white"/>
<path d="M75.855 23.463C75.417 22.7486 74.7135 22.2372 73.8988 22.041C73.0842 21.8449 72.2249 21.9801 71.5099 22.4169L56.2599 31.8669L54.2329 26.2822C53.9154 25.5345 53.3223 24.9376 52.5766 24.6153C51.8308 24.2931 50.9897 24.2701 50.2275 24.5512C49.4653 24.8323 48.8405 25.3959 48.4826 26.1252C48.1247 26.8544 48.0612 27.6935 48.3051 28.4684L51.5688 37.281C51.6393 37.628 51.7732 37.959 51.9637 38.2575C52.351 38.8856 52.9507 39.354 53.6539 39.5777C54.1622 39.7656 54.7116 39.8135 55.2447 39.7166C55.7778 39.6196 56.2751 39.3812 56.6846 39.0264L74.8139 27.817C75.5284 27.3768 76.0392 26.6713 76.2344 25.8552C76.4295 25.039 76.2931 24.1787 75.855 23.463Z" fill="#00C65E"/>
</svg>
