<svg width="34" height="34" viewBox="0 0 34 34" fill="none" xmlns="http://www.w3.org/2000/svg">
<circle cx="17.1064" cy="17.1992" r="16.5" fill="white"/>
<path d="M21.746 7.89062H12.4521C9.89598 7.89062 7.79785 9.98875 7.79785 12.5597V21.8535C7.79785 24.4097 9.89598 26.5078 12.4521 26.5078H21.746C24.3169 26.5078 26.415 24.4097 26.415 21.8387V12.5597C26.415 9.98875 24.3169 7.89062 21.746 7.89062ZM19.6035 17.1992H17.8452V22.9617H15.6289V17.1992H14.4468V14.8351H15.4811V13.8304C15.4811 12.8848 15.9539 11.3924 17.9486 11.3924H19.766V13.3576H18.4806C18.2737 13.3576 17.993 13.4906 17.993 13.9486V14.8351H19.8104L19.6035 17.1992Z" fill="#00C65E"/>
</svg>
