<svg width="34" height="34" viewBox="0 0 34 34" fill="none" xmlns="http://www.w3.org/2000/svg">
<circle cx="17.3076" cy="17.1992" r="16.5" fill="white"/>
<path d="M18.9546 16.003C18.5852 15.4858 17.9794 15.146 17.2998 15.146C16.6201 15.146 16.0143 15.4858 15.6449 16.003C15.4085 16.3428 15.2607 16.7565 15.2607 17.1998C15.2607 18.3227 16.1768 19.2388 17.2998 19.2388C18.4227 19.2388 19.3388 18.3227 19.3388 17.1998C19.3388 16.7565 19.191 16.3428 18.9546 16.003Z" fill="#00C65E"/>
<path d="M20.2408 16.0176C20.3885 16.3131 20.4772 16.7859 20.4772 17.1996C20.4772 18.9431 19.0587 20.3764 17.3004 20.3764C15.5421 20.3764 14.1237 18.9579 14.1237 17.1996C14.1237 16.7711 14.2124 16.3131 14.3601 16.0176H12.5723V20.7605C12.5723 21.3811 13.119 21.9278 13.7395 21.9278H20.8613C21.4819 21.9278 22.0286 21.3811 22.0286 20.7605V16.0176H20.2408Z" fill="#00C65E"/>
<path d="M21.4962 12.7369H19.7822V14.7021H21.7326V12.9881V12.7222L21.4962 12.7369Z" fill="#00C65E"/>
<path d="M21.9393 7.89062H12.6603C10.0893 7.89062 7.99121 9.98875 7.99121 12.5597V21.8535C7.99121 24.4097 10.0893 26.5078 12.6603 26.5078H21.9541C24.525 26.5078 26.6232 24.4097 26.6232 21.8387V12.5597C26.6084 9.98875 24.5103 7.89062 21.9393 7.89062ZM23.0623 16.0024V20.7601C23.0623 22.0013 22.1018 22.9617 20.8607 22.9617H13.7389C12.4978 22.9617 11.5373 22.0013 11.5373 20.7601V16.0024V13.6383C11.5373 12.3972 12.4978 11.4368 13.7389 11.4368H20.8607C22.1018 11.4368 23.0623 12.3972 23.0623 13.6383V16.0024Z" fill="#00C65E"/>
</svg>
