<svg width="34" height="34" viewBox="0 0 34 34" fill="none" xmlns="http://www.w3.org/2000/svg">
<circle cx="16.5107" cy="17.1992" r="16.5" fill="white"/>
<path fill-rule="evenodd" clip-rule="evenodd" d="M11.8574 7.89014C9.28692 7.89014 7.20312 9.97394 7.20312 12.5444V21.853C7.20312 24.4235 9.28692 26.5073 11.8574 26.5073H21.166C23.7365 26.5073 25.8203 24.4235 25.8203 21.853V12.5444C25.8203 9.97394 23.7365 7.89014 21.166 7.89014H11.8574ZM22.0207 13.5141C22.4313 13.5141 22.5176 13.7255 22.4313 14.0131V14.0132C22.2587 14.8042 20.6049 17.134 20.6049 17.134C20.461 17.364 20.4035 17.479 20.6049 17.7379C20.6757 17.8372 20.8269 17.9853 21 18.1549C21.178 18.3293 21.3792 18.5263 21.5396 18.7159C22.1227 19.372 22.5622 19.9253 22.6846 20.3067C22.7965 20.6894 22.6025 20.8834 22.2147 20.8834H20.8572C20.4936 20.8834 20.3105 20.6797 19.9151 20.2398C19.7474 20.0532 19.5415 19.8241 19.2673 19.55C18.4619 18.7734 18.1168 18.6728 17.9153 18.6728C17.6421 18.6728 17.5604 18.7502 17.5604 19.138V20.3554C17.5604 20.6894 17.4537 20.8834 16.5907 20.8834C15.1526 20.8834 13.5722 20.0101 12.4503 18.3995C10.7677 16.041 10.3074 14.2576 10.3074 13.8981C10.3074 13.6967 10.385 13.5141 10.7729 13.5141H12.1304C12.4773 13.5141 12.6078 13.6659 12.7379 14.0419C13.402 15.9758 14.5213 17.6661 14.9815 17.6661C15.1541 17.6661 15.2332 17.5866 15.2332 17.1483V15.1492C15.2021 14.5802 15.0033 14.3341 14.8561 14.1519C14.7652 14.0393 14.6939 13.9511 14.6939 13.8261C14.6939 13.6743 14.8236 13.5141 15.0393 13.5141H17.1725C17.4602 13.5141 17.5604 13.6679 17.5604 14.0131V16.7025C17.5604 16.9901 17.6853 17.0906 17.7716 17.0906C17.9442 17.0906 18.088 16.9901 18.4044 16.6737C19.3823 15.5807 20.0727 13.8981 20.0727 13.8981C20.159 13.6967 20.318 13.5141 20.6632 13.5141H22.0207Z" fill="#00C65E"/>
</svg>
