<svg width="18" height="17" viewBox="0 0 18 17" fill="none" xmlns="http://www.w3.org/2000/svg">
<path d="M11.7085 14.8203C11.9427 15.1834 12.3175 15.5964 12.6376 15.922C12.8426 16.1305 12.6969 16.4999 12.4045 16.4999H5.29478C5.00238 16.4999 4.85671 16.1305 5.06169 15.922C5.38178 15.5964 5.75663 15.1834 5.99082 14.8203C6.46619 14.0833 6.62779 12.9287 6.62779 12.9287H11.0715C11.0715 12.9287 11.2331 14.0833 11.7085 14.8203Z" fill="white" stroke="#363A45" stroke-width="0.7"/>
<mask id="path-2-inside-1_789_5321" fill="white">
<rect x="1.79456" y="2.5957" width="14.1103" height="11.2227" rx="0.636856"/>
</mask>
<rect x="1.79456" y="2.5957" width="14.1103" height="11.2227" rx="0.636856" fill="white" stroke="#363A45" stroke-width="1.4" mask="url(#path-2-inside-1_789_5321)"/>
<path d="M4.19233 12.2399C3.32446 12.022 3.06824 11.0747 3.06824 10.2569C3.06824 7.29174 3.98018 7.5412 3.94988 5.96864C3.90855 3.85611 4.93346 3.66665 5.31091 3.75822C9.59237 4.83501 12.0004 4.074 12.0004 4.074C13.6534 3.70138 10.3473 7.13701 12.0004 10.6421C12.9151 12.6188 5.6305 12.5999 4.19233 12.2399Z" fill="#00C65E"/>
<mask id="path-4-inside-2_789_5321" fill="white">
<rect x="1.79456" width="14.1103" height="3.02122" rx="0.636856"/>
</mask>
<rect x="1.79456" width="14.1103" height="3.02122" rx="0.636856" fill="white" stroke="#363A45" stroke-width="1.4" mask="url(#path-4-inside-2_789_5321)"/>
<path d="M1.98505 2.53568C2.0231 2.41691 2.13352 2.33633 2.25824 2.33633H15.439C15.5637 2.33633 15.6742 2.41691 15.7122 2.53568L16.7491 5.77272C16.8084 5.95783 16.6703 6.14708 16.4759 6.14708H1.22136C1.02698 6.14708 0.88888 5.95783 0.948175 5.77272L1.98505 2.53568Z" fill="white" stroke="#363A45" stroke-width="0.7"/>
<rect x="8.48718" y="2.08203" width="0.722434" height="4.16762" fill="#363A45"/>
<path d="M12.3044 2.08203H13.0269L13.7493 6.24965H13.0269L12.3044 2.08203Z" fill="#363A45"/>
<path d="M5.39136 2.08203H4.66892L3.94649 6.24965H4.66892L5.39136 2.08203Z" fill="#363A45"/>
</svg>
